{
	"asset":{
		"generator":"Khronos glTF Blender I/O v5.1.18",
		"version":"2.0"
	},
	"extensionsUsed":[
	],
	"scene":0,
	"scenes":[
		{
			"name":"Scene",
			"nodes":[
				0
			]
		}
	],
	"nodes":[
		{
			"mesh":0,
			"name":"Rock2"
		}
	],
	"materials":[
		{
			"alphaMode":"BLEND",
			"doubleSided":true,
			"extensions":{
			},
			"name":"Rock2",
			"pbrMetallicRoughness":{
				"baseColorTexture":{
					"index":0
				},
				"metallicFactor":0,
				"roughnessFactor":0.858578622341156
			}
		}
	],
	"meshes":[
		{
			"name":"Mesh",
			"primitives":[
				{
					"attributes":{
						"POSITION":0,
						"NORMAL":1,
						"TEXCOORD_0":2,
						"TEXCOORD_1":3
					},
					"indices":4,
					"material":0
				}
			]
		}
	],
	"textures":[
		{
			"sampler":0,
			"source":0
		}
	],
	"images":[
		{
			"mimeType":"image/png",
			"name":"Rock2",
			"uri":"Rocks/Rock2.png"
		}
	],
	"accessors":[
		{
			"bufferView":0,
			"componentType":5126,
			"count":321,
			"max":[
				6.927075386047363,
				3.061985731124878,
				0.380218505859375
			],
			"min":[
				-5.434183120727539,
				-4.58820915222168,
				-4.902374267578125
			],
			"type":"VEC3"
		},
		{
			"bufferView":1,
			"componentType":5126,
			"count":321,
			"type":"VEC3"
		},
		{
			"bufferView":2,
			"componentType":5126,
			"count":321,
			"type":"VEC2"
		},
		{
			"bufferView":3,
			"componentType":5126,
			"count":321,
			"type":"VEC2"
		},
		{
			"bufferView":4,
			"componentType":5123,
			"count":1476,
			"type":"SCALAR"
		}
	],
	"bufferViews":[
		{
			"buffer":0,
			"byteLength":3852,
			"byteOffset":0,
			"target":34962
		},
		{
			"buffer":0,
			"byteLength":3852,
			"byteOffset":3852,
			"target":34962
		},
		{
			"buffer":0,
			"byteLength":2568,
			"byteOffset":7704,
			"target":34962
		},
		{
			"buffer":0,
			"byteLength":2568,
			"byteOffset":10272,
			"target":34962
		},
		{
			"buffer":0,
			"byteLength":2952,
			"byteOffset":12840,
			"target":34963
		}
	],
	"samplers":[
		{
			"magFilter":9729,
			"minFilter":9987
		}
	],
	"buffers":[
		{
			"byteLength":15792,
			"uri":"Rock2.bin"
		}
	]
}
