{
	"asset":{
		"generator":"Khronos glTF Blender I/O v5.1.18",
		"version":"2.0"
	},
	"extensionsUsed":[
	],
	"scene":0,
	"scenes":[
		{
			"name":"Scene",
			"nodes":[
				3
			]
		}
	],
	"nodes":[
		{
			"mesh":0,
			"name":"BombTop",
			"scale":[
				0.30240002274513245,
				0.5600000023841858,
				0.30240002274513245
			],
			"translation":[
				0,
				1.0352091789245605,
				0
			]
		},
		{
			"children":[
				0
			],
			"mesh":1,
			"name":"CannonBall",
			"rotation":[
				-0.5,
				-0.4999999403953552,
				0.5000000596046448,
				0.5000000596046448
			],
			"scale":[
				0.5,
				0.5,
				0.5
			]
		},
		{
			"mesh":2,
			"name":"BombWick",
			"rotation":[
				-0.5,
				-0.4999999403953552,
				0.5000000596046448,
				0.5000000596046448
			],
			"scale":[
				0.5,
				0.1358652114868164,
				0.5
			],
			"translation":[
				0,
				0,
				-0.4730810225009918
			]
		},
		{
			"children":[
				1,
				2
			],
			"name":"blend_root",
			"rotation":[
				0.7071068286895752,
				0,
				0,
				0.7071068286895752
			]
		}
	],
	"animations":[
		{
			"channels":[
				{
					"sampler":0,
					"target":{
						"node":1,
						"path":"translation"
					}
				},
				{
					"sampler":1,
					"target":{
						"node":1,
						"path":"rotation"
					}
				},
				{
					"sampler":2,
					"target":{
						"node":1,
						"path":"scale"
					}
				},
				{
					"sampler":3,
					"target":{
						"node":0,
						"path":"translation"
					}
				},
				{
					"sampler":4,
					"target":{
						"node":0,
						"path":"rotation"
					}
				},
				{
					"sampler":5,
					"target":{
						"node":0,
						"path":"scale"
					}
				},
				{
					"sampler":6,
					"target":{
						"node":2,
						"path":"translation"
					}
				},
				{
					"sampler":7,
					"target":{
						"node":2,
						"path":"rotation"
					}
				},
				{
					"sampler":8,
					"target":{
						"node":2,
						"path":"scale"
					}
				}
			],
			"name":"Default Take",
			"samplers":[
				{
					"input":12,
					"interpolation":"LINEAR",
					"output":13
				},
				{
					"input":12,
					"interpolation":"LINEAR",
					"output":14
				},
				{
					"input":12,
					"interpolation":"LINEAR",
					"output":15
				},
				{
					"input":12,
					"interpolation":"LINEAR",
					"output":16
				},
				{
					"input":12,
					"interpolation":"LINEAR",
					"output":17
				},
				{
					"input":12,
					"interpolation":"LINEAR",
					"output":18
				},
				{
					"input":12,
					"interpolation":"LINEAR",
					"output":19
				},
				{
					"input":12,
					"interpolation":"LINEAR",
					"output":14
				},
				{
					"input":12,
					"interpolation":"LINEAR",
					"output":20
				}
			]
		}
	],
	"materials":[
		{
			"doubleSided":true,
			"extensions":{
			},
			"name":"None__CannonBall_png",
			"pbrMetallicRoughness":{
				"baseColorTexture":{
					"index":0
				},
				"metallicRoughnessTexture":{
					"index":1
				},
				"roughnessFactor":0.10557281225919724
			}
		}
	],
	"meshes":[
		{
			"name":"BombTop",
			"primitives":[
				{
					"attributes":{
						"POSITION":0,
						"NORMAL":1,
						"TEXCOORD_0":2
					},
					"indices":3,
					"material":0
				}
			]
		},
		{
			"name":"CannonBall",
			"primitives":[
				{
					"attributes":{
						"POSITION":4,
						"NORMAL":5,
						"TEXCOORD_0":6
					},
					"indices":7,
					"material":0
				}
			]
		},
		{
			"name":"BombWick",
			"primitives":[
				{
					"attributes":{
						"POSITION":8,
						"NORMAL":9,
						"TEXCOORD_0":10
					},
					"indices":11,
					"material":0
				}
			]
		}
	],
	"textures":[
		{
			"sampler":0,
			"source":0
		},
		{
			"sampler":0,
			"source":1
		}
	],
	"images":[
		{
			"mimeType":"image/png",
			"name":"CannonBall",
			"uri":"CannonBall/Albedo.png"
		},
		{
			"mimeType":"image/png",
			"name":"CannonBall - Metal",
			"uri":"CannonBall/MetallicRoughness.png"
		}
	],
	"accessors":[
		{
			"bufferView":0,
			"componentType":5126,
			"count":37,
			"max":[
				0.9510570168495178,
				0.30901700258255005,
				0.9510570168495178
			],
			"min":[
				-0.9510570168495178,
				-0.30901700258255005,
				-0.9510570168495178
			],
			"type":"VEC3"
		},
		{
			"bufferView":1,
			"componentType":5126,
			"count":37,
			"type":"VEC3"
		},
		{
			"bufferView":2,
			"componentType":5126,
			"count":37,
			"type":"VEC2"
		},
		{
			"bufferView":3,
			"componentType":5123,
			"count":72,
			"type":"SCALAR"
		},
		{
			"bufferView":4,
			"componentType":5126,
			"count":46,
			"max":[
				0.9510570168495178,
				1,
				0.9510570168495178
			],
			"min":[
				-0.9510570168495178,
				-1,
				-0.9510570168495178
			],
			"type":"VEC3"
		},
		{
			"bufferView":5,
			"componentType":5126,
			"count":46,
			"type":"VEC3"
		},
		{
			"bufferView":6,
			"componentType":5126,
			"count":46,
			"type":"VEC2"
		},
		{
			"bufferView":7,
			"componentType":5123,
			"count":192,
			"type":"SCALAR"
		},
		{
			"bufferView":8,
			"componentType":5126,
			"count":22,
			"max":[
				0.06969700008630753,
				2.12739896774292,
				0.4375370144844055
			],
			"min":[
				-0.06062199920415878,
				0.8755040168762207,
				-0.07000000029802322
			],
			"type":"VEC3"
		},
		{
			"bufferView":9,
			"componentType":5126,
			"count":22,
			"type":"VEC3"
		},
		{
			"bufferView":10,
			"componentType":5126,
			"count":22,
			"type":"VEC2"
		},
		{
			"bufferView":11,
			"componentType":5123,
			"count":45,
			"type":"SCALAR"
		},
		{
			"bufferView":12,
			"componentType":5126,
			"count":1,
			"max":[
				0.08333333333333333
			],
			"min":[
				0.08333333333333333
			],
			"type":"SCALAR"
		},
		{
			"bufferView":13,
			"componentType":5126,
			"count":1,
			"type":"VEC3"
		},
		{
			"bufferView":14,
			"componentType":5126,
			"count":1,
			"type":"VEC4"
		},
		{
			"bufferView":15,
			"componentType":5126,
			"count":1,
			"type":"VEC3"
		},
		{
			"bufferView":16,
			"componentType":5126,
			"count":1,
			"type":"VEC3"
		},
		{
			"bufferView":17,
			"componentType":5126,
			"count":1,
			"type":"VEC4"
		},
		{
			"bufferView":18,
			"componentType":5126,
			"count":1,
			"type":"VEC3"
		},
		{
			"bufferView":19,
			"componentType":5126,
			"count":1,
			"type":"VEC3"
		},
		{
			"bufferView":20,
			"componentType":5126,
			"count":1,
			"type":"VEC3"
		}
	],
	"bufferViews":[
		{
			"buffer":0,
			"byteLength":444,
			"byteOffset":0,
			"target":34962
		},
		{
			"buffer":0,
			"byteLength":444,
			"byteOffset":444,
			"target":34962
		},
		{
			"buffer":0,
			"byteLength":296,
			"byteOffset":888,
			"target":34962
		},
		{
			"buffer":0,
			"byteLength":144,
			"byteOffset":1184,
			"target":34963
		},
		{
			"buffer":0,
			"byteLength":552,
			"byteOffset":1328,
			"target":34962
		},
		{
			"buffer":0,
			"byteLength":552,
			"byteOffset":1880,
			"target":34962
		},
		{
			"buffer":0,
			"byteLength":368,
			"byteOffset":2432,
			"target":34962
		},
		{
			"buffer":0,
			"byteLength":384,
			"byteOffset":2800,
			"target":34963
		},
		{
			"buffer":0,
			"byteLength":264,
			"byteOffset":3184,
			"target":34962
		},
		{
			"buffer":0,
			"byteLength":264,
			"byteOffset":3448,
			"target":34962
		},
		{
			"buffer":0,
			"byteLength":176,
			"byteOffset":3712,
			"target":34962
		},
		{
			"buffer":0,
			"byteLength":90,
			"byteOffset":3888,
			"target":34963
		},
		{
			"buffer":0,
			"byteLength":4,
			"byteOffset":3980
		},
		{
			"buffer":0,
			"byteLength":12,
			"byteOffset":3984
		},
		{
			"buffer":0,
			"byteLength":16,
			"byteOffset":3996
		},
		{
			"buffer":0,
			"byteLength":12,
			"byteOffset":4012
		},
		{
			"buffer":0,
			"byteLength":12,
			"byteOffset":4024
		},
		{
			"buffer":0,
			"byteLength":16,
			"byteOffset":4036
		},
		{
			"buffer":0,
			"byteLength":12,
			"byteOffset":4052
		},
		{
			"buffer":0,
			"byteLength":12,
			"byteOffset":4064
		},
		{
			"buffer":0,
			"byteLength":12,
			"byteOffset":4076
		}
	],
	"samplers":[
		{
			"magFilter":9729,
			"minFilter":9987
		}
	],
	"buffers":[
		{
			"byteLength":4088,
			"uri":"CannonBall.bin"
		}
	]
}
