{
	"asset":{
		"generator":"Khronos glTF Blender I/O v5.1.18",
		"version":"2.0"
	},
	"extensionsUsed":[
		"KHR_materials_specular"
	],
	"scene":0,
	"scenes":[
		{
			"name":"Scene",
			"nodes":[
				0
			]
		}
	],
	"nodes":[
		{
			"mesh":0,
			"name":"Barrel_04_LOD0",
			"rotation":[
				0.7071068286895752,
				0,
				0,
				0.7071068286895752
			]
		}
	],
	"materials":[
		{
			"alphaMode":"BLEND",
			"doubleSided":true,
			"extensions":{
				"KHR_materials_specular":{
					"specularColorFactor":[
						2.0,
						2.0,
						2.0
					]
				}
			},
			"name":"TropicalEnvironment_01.006",
			"pbrMetallicRoughness":{
				"baseColorTexture":{
					"index":0
				},
				"metallicRoughnessTexture":{
					"index":1
				}
			}
		}
	],
	"meshes":[
		{
			"name":"Mesh.102",
			"primitives":[
				{
					"attributes":{
						"POSITION":0,
						"NORMAL":1,
						"TEXCOORD_0":2,
						"TEXCOORD_1":3
					},
					"indices":4,
					"material":0
				}
			]
		}
	],
	"textures":[
		{
			"sampler":0,
			"source":0
		},
		{
			"sampler":0,
			"source":1
		}
	],
	"images":[
		{
			"mimeType":"image/png",
			"name":"Island/PropsAlbedo",
			"uri":"Island/PropsAlbedo.png"
		},
		{
			"mimeType":"image/png",
			"name":"Island/PropsMetallicRoughness",
			"uri":"Island/PropsMetallicRoughness.png"
		}
	],
	"accessors":[
		{
			"bufferView":0,
			"componentType":5126,
			"count":955,
			"max":[
				0.3962157666683197,
				0.8612812161445618,
				0.39621588587760925
			],
			"min":[
				-0.3962157666683197,
				-1.110048657437801e-07,
				-0.4289189875125885
			],
			"type":"VEC3"
		},
		{
			"bufferView":1,
			"componentType":5126,
			"count":955,
			"type":"VEC3"
		},
		{
			"bufferView":2,
			"componentType":5126,
			"count":955,
			"type":"VEC2"
		},
		{
			"bufferView":3,
			"componentType":5126,
			"count":955,
			"type":"VEC2"
		},
		{
			"bufferView":4,
			"componentType":5123,
			"count":2112,
			"type":"SCALAR"
		}
	],
	"bufferViews":[
		{
			"buffer":0,
			"byteLength":11460,
			"byteOffset":0,
			"target":34962
		},
		{
			"buffer":0,
			"byteLength":11460,
			"byteOffset":11460,
			"target":34962
		},
		{
			"buffer":0,
			"byteLength":7640,
			"byteOffset":22920,
			"target":34962
		},
		{
			"buffer":0,
			"byteLength":7640,
			"byteOffset":30560,
			"target":34962
		},
		{
			"buffer":0,
			"byteLength":4224,
			"byteOffset":38200,
			"target":34963
		}
	],
	"samplers":[
		{
			"magFilter":9729,
			"minFilter":9987
		}
	],
	"buffers":[
		{
			"byteLength":42424,
			"uri":"Barrel.bin"
		}
	]
}
