{
	"asset":{
		"generator":"Khronos glTF Blender I/O v5.1.18",
		"version":"2.0"
	},
	"scene":0,
	"scenes":[
		{
			"name":"Scene",
			"nodes":[
				0
			]
		}
	],
	"nodes":[
		{
			"mesh":0,
			"name":"PalmTree_05_LOD0",
			"rotation":[
				0.7071068286895752,
				0,
				0,
				0.7071068286895752
			]
		}
	],
	"materials":[
		{
			"doubleSided":true,
			"name":"TropicalEnvironment_01",
			"pbrMetallicRoughness":{
				"baseColorTexture":{
					"index":0
				},
				"metallicFactor":0,
				"roughnessFactor":0.8999999761581421
			}
		}
	],
	"meshes":[
		{
			"name":"Mesh.639",
			"primitives":[
				{
					"attributes":{
						"POSITION":0,
						"NORMAL":1,
						"TEXCOORD_0":2,
						"TEXCOORD_1":3,
						"COLOR_0":4,
						"COLOR_1":5
					},
					"indices":6,
					"material":0
				}
			]
		}
	],
	"textures":[
		{
			"sampler":0,
			"source":0
		}
	],
	"images":[
		{
			"mimeType":"image/png",
			"name":"Island/PropsAlbedo",
			"uri":"Island/PropsAlbedo.png"
		}
	],
	"accessors":[
		{
			"bufferView":0,
			"componentType":5126,
			"count":3015,
			"max":[
				2.1894912719726562,
				4.102322578430176,
				2.082872152328491
			],
			"min":[
				-0.1914876103401184,
				-0.02069517783820629,
				-0.4297848343849182
			],
			"type":"VEC3"
		},
		{
			"bufferView":1,
			"componentType":5126,
			"count":3015,
			"type":"VEC3"
		},
		{
			"bufferView":2,
			"componentType":5126,
			"count":3015,
			"type":"VEC2"
		},
		{
			"bufferView":3,
			"componentType":5126,
			"count":3015,
			"type":"VEC2"
		},
		{
			"bufferView":4,
			"componentType":5121,
			"count":3015,
			"normalized":true,
			"type":"VEC4"
		},
		{
			"bufferView":5,
			"componentType":5123,
			"count":3015,
			"normalized":true,
			"type":"VEC4"
		},
		{
			"bufferView":6,
			"componentType":5123,
			"count":6540,
			"type":"SCALAR"
		}
	],
	"bufferViews":[
		{
			"buffer":0,
			"byteLength":36180,
			"byteOffset":0,
			"target":34962
		},
		{
			"buffer":0,
			"byteLength":36180,
			"byteOffset":36180,
			"target":34962
		},
		{
			"buffer":0,
			"byteLength":24120,
			"byteOffset":72360,
			"target":34962
		},
		{
			"buffer":0,
			"byteLength":24120,
			"byteOffset":96480,
			"target":34962
		},
		{
			"buffer":0,
			"byteLength":12060,
			"byteOffset":120600,
			"target":34962
		},
		{
			"buffer":0,
			"byteLength":24120,
			"byteOffset":132660,
			"target":34962
		},
		{
			"buffer":0,
			"byteLength":13080,
			"byteOffset":156780,
			"target":34963
		}
	],
	"samplers":[
		{
			"magFilter":9729,
			"minFilter":9987
		}
	],
	"buffers":[
		{
			"byteLength":169860,
			"uri":"PalmTree.bin"
		}
	]
}
