{
	"asset":{
		"generator":"Khronos glTF Blender I/O v5.1.18",
		"version":"2.0"
	},
	"scene":0,
	"scenes":[
		{
			"name":"Scene",
			"nodes":[
				0
			]
		}
	],
	"nodes":[
		{
			"mesh":0,
			"name":"Plant_01_LOD0",
			"rotation":[
				0.7071068286895752,
				0,
				0,
				0.7071068286895752
			]
		}
	],
	"materials":[
		{
			"alphaMode":"BLEND",
			"doubleSided":true,
			"name":"TropicalEnvironment_01",
			"pbrMetallicRoughness":{
				"baseColorTexture":{
					"index":0
				},
				"metallicFactor":0,
				"roughnessFactor":0.8999999761581421
			}
		}
	],
	"meshes":[
		{
			"name":"Mesh.643",
			"primitives":[
				{
					"attributes":{
						"POSITION":0,
						"NORMAL":1,
						"TEXCOORD_0":2,
						"TEXCOORD_1":3,
						"COLOR_0":4,
						"COLOR_1":5
					},
					"indices":6,
					"material":0
				}
			]
		}
	],
	"textures":[
		{
			"sampler":0,
			"source":0
		}
	],
	"images":[
		{
			"mimeType":"image/png",
			"name":"Island/PropsAlbedo",
			"uri":"Island/PropsAlbedo.png"
		}
	],
	"accessors":[
		{
			"bufferView":0,
			"componentType":5126,
			"count":1834,
			"max":[
				0.715076744556427,
				0.4027247130870819,
				0.7854713201522827
			],
			"min":[
				-0.7189127206802368,
				-0.00648481585085392,
				-0.8558557033538818
			],
			"type":"VEC3"
		},
		{
			"bufferView":1,
			"componentType":5126,
			"count":1834,
			"type":"VEC3"
		},
		{
			"bufferView":2,
			"componentType":5126,
			"count":1834,
			"type":"VEC2"
		},
		{
			"bufferView":3,
			"componentType":5126,
			"count":1834,
			"type":"VEC2"
		},
		{
			"bufferView":4,
			"componentType":5121,
			"count":1834,
			"normalized":true,
			"type":"VEC4"
		},
		{
			"bufferView":5,
			"componentType":5123,
			"count":1834,
			"normalized":true,
			"type":"VEC4"
		},
		{
			"bufferView":6,
			"componentType":5123,
			"count":4368,
			"type":"SCALAR"
		}
	],
	"bufferViews":[
		{
			"buffer":0,
			"byteLength":22008,
			"byteOffset":0,
			"target":34962
		},
		{
			"buffer":0,
			"byteLength":22008,
			"byteOffset":22008,
			"target":34962
		},
		{
			"buffer":0,
			"byteLength":14672,
			"byteOffset":44016,
			"target":34962
		},
		{
			"buffer":0,
			"byteLength":14672,
			"byteOffset":58688,
			"target":34962
		},
		{
			"buffer":0,
			"byteLength":7336,
			"byteOffset":73360,
			"target":34962
		},
		{
			"buffer":0,
			"byteLength":14672,
			"byteOffset":80696,
			"target":34962
		},
		{
			"buffer":0,
			"byteLength":8736,
			"byteOffset":95368,
			"target":34963
		}
	],
	"samplers":[
		{
			"magFilter":9729,
			"minFilter":9987
		}
	],
	"buffers":[
		{
			"byteLength":104104,
			"uri":"Plant.bin"
		}
	]
}
