{
	"asset":{
		"generator":"Khronos glTF Blender I/O v5.1.18",
		"version":"2.0"
	},
	"scene":0,
	"scenes":[
		{
			"name":"Scene",
			"nodes":[
				0
			]
		}
	],
	"nodes":[
		{
			"mesh":0,
			"name":"Tent_01_LOD0",
			"rotation":[
				0.7071068286895752,
				0,
				0,
				0.7071068286895752
			],
			"scale":[
				0.009999999776482582,
				0.009999999776482582,
				0.009999999776482582
			]
		}
	],
	"materials":[
		{
			"doubleSided":true,
			"name":"TropicalEnvironment_01.001",
			"pbrMetallicRoughness":{
				"baseColorTexture":{
					"index":0
				},
				"metallicFactor":0,
				"roughnessFactor":0.8999999761581421
			}
		}
	],
	"meshes":[
		{
			"name":"Mesh.169",
			"primitives":[
				{
					"attributes":{
						"POSITION":0,
						"NORMAL":1,
						"TEXCOORD_0":2,
						"TEXCOORD_1":3
					},
					"indices":4,
					"material":0
				}
			]
		}
	],
	"textures":[
		{
			"sampler":0,
			"source":0
		}
	],
	"images":[
		{
			"mimeType":"image/png",
			"name":"Island/PropsAlbedo",
			"uri":"Island/PropsAlbedo.png"
		}
	],
	"accessors":[
		{
			"bufferView":0,
			"componentType":5126,
			"count":762,
			"max":[
				131.00299072265625,
				309.5423583984375,
				114.10100555419922
			],
			"min":[
				-131.00299072265625,
				-0.5654873251914978,
				-131.0029754638672
			],
			"type":"VEC3"
		},
		{
			"bufferView":1,
			"componentType":5126,
			"count":762,
			"type":"VEC3"
		},
		{
			"bufferView":2,
			"componentType":5126,
			"count":762,
			"type":"VEC2"
		},
		{
			"bufferView":3,
			"componentType":5126,
			"count":762,
			"type":"VEC2"
		},
		{
			"bufferView":4,
			"componentType":5123,
			"count":2076,
			"type":"SCALAR"
		}
	],
	"bufferViews":[
		{
			"buffer":0,
			"byteLength":9144,
			"byteOffset":0,
			"target":34962
		},
		{
			"buffer":0,
			"byteLength":9144,
			"byteOffset":9144,
			"target":34962
		},
		{
			"buffer":0,
			"byteLength":6096,
			"byteOffset":18288,
			"target":34962
		},
		{
			"buffer":0,
			"byteLength":6096,
			"byteOffset":24384,
			"target":34962
		},
		{
			"buffer":0,
			"byteLength":4152,
			"byteOffset":30480,
			"target":34963
		}
	],
	"samplers":[
		{
			"magFilter":9729,
			"minFilter":9987
		}
	],
	"buffers":[
		{
			"byteLength":34632,
			"uri":"Tent.bin"
		}
	]
}
